PathFileType	4	(X/Y/Z)	/Users/itak/Documents/Research/Walk-IL/dataset/trc/00193_00008.trc
DataRate	CameraRate	NumFrames	NumMarkers	Units	OrigDataRate	OrigDataStartFrame	OrigNumFrames
100.000000	100.000000	4	53	mm	100.000000	191	766
Frame#	Time	RPSI			LPSI			L3			STRN			T10			C7			CLAV			RBAK			LBAK			LSHO			LUPA			LAEL			LAOL			LWTS			LWPS			LFRA			LIFD			LHPS			LHTS			RSHO			RUPA			RAEL			RAOL			RWTS			RWPS			RFRA			RIFD			RHTS			RHPS			RBHD			LFHD			RFHD			LBHD			LHIP			RHIP			RASI			LASI			LKNE			LTHI			LANK			LTIP			LTOE			LMT1			LMT5			LHEE			RKNE			RTHI			RANK			RTIP			RTOE			RMT1			RMT5			RHEE			
		X1	Y1	Z1	X2	Y2	Z2	X3	Y3	Z3	X4	Y4	Z4	X5	Y5	Z5	X6	Y6	Z6	X7	Y7	Z7	X8	Y8	Z8	X9	Y9	Z9	X10	Y10	Z10	X11	Y11	Z11	X12	Y12	Z12	X13	Y13	Z13	X14	Y14	Z14	X15	Y15	Z15	X16	Y16	Z16	X17	Y17	Z17	X18	Y18	Z18	X19	Y19	Z19	X20	Y20	Z20	X21	Y21	Z21	X22	Y22	Z22	X23	Y23	Z23	X24	Y24	Z24	X25	Y25	Z25	X26	Y26	Z26	X27	Y27	Z27	X28	Y28	Z28	X29	Y29	Z29	X30	Y30	Z30	X31	Y31	Z31	X32	Y32	Z32	X33	Y33	Z33	X34	Y34	Z34	X35	Y35	Z35	X36	Y36	Z36	X37	Y37	Z37	X38	Y38	Z38	X39	Y39	Z39	X40	Y40	Z40	X41	Y41	Z41	X42	Y42	Z42	X43	Y43	Z43	X44	Y44	Z44	X45	Y45	Z45	X46	Y46	Z46	X47	Y47	Z47	X48	Y48	Z48	X49	Y49	Z49	X50	Y50	Z50	X51	Y51	Z51	X52	Y52	Z52	X53	Y53	Z53	

192	1.91	-576.1875	1049.516357421875	372.4436950683594	-697.2318115234375	1059.43017578125	395.4393615722656	-631.0921020507812	1090.685668945312	381.9955444335938	-689.251708984375	1295.9033203125	124.3510513305664	-621.5855102539062	1251.964965820312	415.510009765625	-647.3633422851562	1519.438354492188	345.0547790527344	-692.17041015625	1410.19384765625	151.7856750488281	-525.8839111328125	1345.290649414062	390.6776123046875	-741.3671875	1497.470825195312	377.2493591308594	-835.4586181640625	1483.507934570312	324.3596801757812	-893.50927734375	1357.475708007812	393.2455444335938	-905.7201538085938	1144.126831054688	420.2904968261719	-818.6455078125	1132.107421875	433.1304016113281	-921.942626953125	891.6055908203125	364.42626953125	-921.95556640625	894.39990234375	457.7435607910156	-920.980712890625	1036.059448242188	438.8985595703125	-885.0814819335938	717.3740844726562	389.16650390625	-923.6095581054688	821.6480102539062	455.7223815917969	-939.5900268554688	812.5345458984375	385.0569458007812	-486.7633361816406	1495.413208007812	240.6709747314453	-414.6255798339844	1430.84716796875	246.9262237548828	-343.7352905273438	1147.016723632812	259.9051208496094	-435.6048278808594	1135.323364257812	289.0940551757812	-389.6513977050781	917.7476806640625	128.3335876464844	-326.4739074707031	902.4945678710938	190.9657897949219	-329.9769592285156	1074.196899414062	230.9647216796875	-411.8634033203125	729.281494140625	119.2990188598633	-384.3759460449219	823.9573364257812	101.2828903198242	-334.1463012695312	819.1151123046875	164.3995971679688	-585.0817260742188	1663.076049804688	291.0921630859375	-724.301025390625	1738.654907226562	140.6690368652344	-596.8899536132812	1722.919311523438	126.9652481079102	-717.8204345703125	1686.855834960938	314.0757751464844	-836.1609497070312	1008.530883789062	313.8573608398438	-482.6975402832031	993.4595336914062	200.6609344482422	-548.8609619140625	1028.113647460938	129.2404937744141	-800.6028442382812	1040.249267578125	179.7939605712891	-835.5928955078125	508.1760559082031	205.6176452636719	-854.5079345703125	652.140625	236.0504302978516	-827.3032836914062	31.8817310333252	278.1276550292969	-844.0366821289062	276.4945373535156	237.5052337646484	-843.9022827148438	46.70325469970703	59.46016693115234	-788.5484008789062	48.73875427246094	97.80629730224609	-886.799072265625	28.01603889465332	180.7193908691406	-750.4268188476562	39.09179306030273	315.6334533691406	-519.7763671875	490.2134094238281	153.3114471435547	-496.6301574707031	766.1878662109375	139.8451690673828	-480.6184997558594	180.0532379150391	540.1690673828125	-524.8972778320312	377.738525390625	211.068359375	-504.1481018066406	65.9039306640625	363.8687744140625	-549.3839721679688	75.84709930419922	410.1556091308594	-438.974609375	112.4564895629883	455.9206848144531	-551.84521484375	205.2581634521484	577.8375244140625	
193	1.92	-580.9457397460938	1050.08740234375	367.0162658691406	-702.2479248046875	1059.96044921875	388.4903259277344	-636.2684936523438	1091.590698242188	375.7532653808594	-690.45703125	1296.190307617188	116.738639831543	-627.9558715820312	1253.167358398438	409.0962829589844	-652.7315673828125	1520.372802734375	337.4014282226562	-693.8177490234375	1410.638305664062	143.6293334960938	-531.9925537109375	1346.424682617188	385.6307678222656	-747.5020141601562	1498.609741210938	367.7808227539062	-840.5279541015625	1484.742431640625	312.9859619140625	-900.41357421875	1358.669555664062	380.0417175292969	-914.8837890625	1145.239624023438	405.8869018554688	-828.3884887695312	1132.777465820312	421.7060852050781	-930.4724731445312	893.1836547851562	347.9633483886719	-933.553955078125	895.3216552734375	441.2699279785156	-931.2879638671875	1037.140014648438	423.2593994140625	-895.60498046875	718.5715942382812	372.6676025390625	-935.7919921875	822.62109375	438.4617004394531	-949.3665771484375	814.1525268554688	367.3585815429688	-490.1581115722656	1496.165161132812	236.0066680908203	-418.1996765136719	1431.493896484375	243.8267822265625	-347.7458801269531	1147.500244140625	258.3602294921875	-440.3098449707031	1135.960693359375	285.4867858886719	-391.4365539550781	919.8456420898438	123.3680191040039	-330.4284973144531	903.2664794921875	187.7292022705078	-333.6117858886719	1074.674194335938	229.2490386962891	-414.9160766601562	731.8343505859375	110.7516098022461	-385.971435546875	826.5364990234375	95.09815979003906	-338.0582885742188	820.2772827148438	159.7874450683594	-589.1602783203125	1663.581176757812	283.993896484375	-725.462646484375	1739.080078125	130.9412231445312	-597.8858032226562	1723.061889648438	119.5707702636719	-722.2167358398438	1687.730712890625	304.4014587402344	-839.6775512695312	1008.559387207031	305.6785888671875	-485.0673217773438	994.7344970703125	196.2215576171875	-550.6619873046875	1029.026733398438	124.3849716186523	-803.3945922851562	1040.482055664062	171.6823425292969	-836.8768310546875	507.7110595703125	201.9466705322266	-856.3265380859375	651.93408203125	230.4743347167969	-827.2806396484375	31.95451927185059	278.0556945800781	-844.730712890625	276.3174133300781	235.7547607421875	-843.9471435546875	46.130126953125	59.19702911376953	-788.5650024414062	48.64827346801758	97.6094970703125	-886.8741455078125	27.98344993591309	180.7299041748047	-750.3627319335938	39.32632064819336	315.3784790039062	-524.0848999023438	492.193115234375	137.1751556396484	-499.0902099609375	768.3489379882812	131.0170745849609	-491.666259765625	177.8012237548828	520.6203002929688	-530.921142578125	379.1261596679688	193.5338439941406	-513.7890014648438	66.21528625488281	341.8875427246094	-559.1314086914062	76.20905303955078	388.1592407226562	-449.4293823242188	111.8404922485352	435.3642883300781	-563.1162719726562	202.4068908691406	558.2229614257812	
194	1.93	-585.4822998046875	1050.593994140625	361.5337829589844	-707.021484375	1060.434448242188	381.536865234375	-641.224365234375	1092.416259765625	369.474853515625	-691.5595703125	1296.507568359375	109.2109069824219	-634.1361083984375	1254.249633789062	402.6443786621094	-657.8836059570312	1521.200073242188	329.8411560058594	-695.367431640625	1411.092041015625	135.5919952392578	-537.9454956054688	1347.46240234375	380.5610656738281	-753.322021484375	1499.621826171875	358.4472961425781	-845.316162109375	1485.956787109375	301.7918701171875	-907.0186767578125	1359.846923828125	366.9271240234375	-923.9242553710938	1146.386596679688	391.3353271484375	-838.0984497070312	1133.338012695312	410.0118103027344	-939.18408203125	894.8524169921875	331.1436157226562	-945.227783203125	896.3085327148438	424.4087524414062	-941.57080078125	1038.271484375	407.3204345703125	-906.2684326171875	719.8198852539062	355.7533264160156	-948.0830078125	823.6690063476562	420.7687377929688	-959.2500610351562	815.8578491210938	349.2936401367188	-493.4593811035156	1496.866821289062	231.4464721679688	-421.7127990722656	1432.119995117188	240.7783966064453	-351.8650512695312	1147.906372070312	256.8330993652344	-445.0960083007812	1136.613159179688	281.9055480957031	-393.3418884277344	921.8766479492188	118.5392761230469	-334.5397338867188	903.9723510742188	184.5052337646484	-337.40283203125	1075.067016601562	227.5565490722656	-418.0474548339844	734.3527221679688	102.4587097167969	-387.7182312011719	829.0288696289062	89.10878753662109	-342.109375	821.3775634765625	155.2548522949219	-593.1056518554688	1664.095458984375	276.9286193847656	-726.4736938476562	1739.385498046875	121.2595443725586	-598.7765502929688	1723.092407226562	112.2291946411133	-726.438720703125	1688.585571289062	294.7950744628906	-843.0662841796875	1008.555297851562	297.5935668945312	-487.3360595703125	995.9891967773438	191.69775390625	-552.4388427734375	1029.872924804688	119.5206756591797	-806.0796508789062	1040.644897460938	163.7004852294922	-838.080078125	507.2595520019531	198.5918579101562	-858.0409545898438	651.6927490234375	225.2706451416016	-827.2509765625	32.04231643676758	277.9830017089844	-845.3783569335938	276.1747131347656	234.1907348632812	-844.0001831054688	45.63440704345703	58.97747039794922	-788.5821533203125	48.59056091308594	97.44652557373047	-886.9315185546875	27.95913505554199	180.7488861083984	-750.2509155273438	39.58268356323242	315.0909729003906	-528.2161865234375	494.3404846191406	121.2079620361328	-501.4062194824219	770.516357421875	122.2430648803711	-502.6540832519531	174.4445648193359	500.290771484375	-536.8660278320312	380.5111083984375	175.9210357666016	-524.3535766601562	66.18728637695312	319.0674438476562	-569.7867431640625	76.26223754882812	365.3171081542969	-460.3617553710938	110.037956237793	413.8913879394531	-574.1317138671875	198.8086090087891	537.94775390625	
195	1.94	-589.8013305664062	1051.044311523438	355.981689453125	-711.5575561523438	1060.866333007812	374.5719909667969	-645.9579467773438	1093.159790039062	363.1548461914062	-692.5653686523438	1296.843627929688	101.7492218017578	-640.1317138671875	1255.20263671875	396.1412048339844	-662.8289794921875	1521.921630859375	322.3632202148438	-696.8313598632812	1411.53955078125	127.6543579101562	-543.7391967773438	1348.38916015625	375.4675903320312	-758.8209228515625	1500.495239257812	349.2532653808594	-849.790283203125	1487.092651367188	290.7886657714844	-913.3140869140625	1360.984008789062	353.935791015625	-932.80029296875	1147.55224609375	376.694580078125	-847.7220458984375	1133.776733398438	398.0634765625	-948.0537109375	896.6188354492188	314.0014038085938	-956.913330078125	897.3551025390625	407.1847229003906	-951.7666015625	1039.438232421875	391.158203125	-917.0952758789062	721.1218872070312	338.3870544433594	-960.41259765625	824.7892456054688	402.6765441894531	-969.240966796875	817.6605224609375	330.87548828125	-496.6793518066406	1497.493408203125	226.985107421875	-425.1637268066406	1432.70458984375	237.7635192871094	-356.0632019042969	1148.217529296875	255.2996673583984	-449.9109802246094	1137.264282226562	278.3124694824219	-395.4002380371094	923.8128662109375	113.8440628051758	-338.7817993164062	904.6015625	181.2577514648438	-341.3200378417969	1075.36083984375	225.8597564697266	-421.2832336425781	736.7957763671875	94.46420288085938	-389.6590881347656	831.3964233398438	83.32302093505859	-346.2767944335938	822.4002685546875	150.7788696289062	-596.9174194335938	1664.619018554688	269.9039916992188	-727.3463745117188	1739.570678710938	111.6336288452148	-599.5686645507812	1723.013427734375	104.9473495483398	-730.4859008789062	1689.424560546875	285.2636413574219	-846.3596801757812	1008.530578613281	289.5697631835938	-489.5033264160156	997.2171630859375	187.0741119384766	-554.2001953125	1030.62841796875	114.6117248535156	-808.6690063476562	1040.7294921875	155.8138580322266	-839.2197875976562	506.83056640625	195.5744018554688	-859.6749267578125	651.442626953125	220.4422912597656	-827.2185668945312	32.14525604248047	277.9073181152344	-845.9869995117188	276.0657348632812	232.8169860839844	-844.0518188476562	45.19841003417969	58.7928352355957	-788.600830078125	48.55670547485352	97.31301116943359	-886.9740600585938	27.94000244140625	180.7751007080078	-750.1054077148438	39.86968231201172	314.7932739257812	-532.1460571289062	496.6444396972656	105.4609603881836	-503.572021484375	772.6904296875	113.5683898925781	-513.5812377929688	170.07861328125	479.2107238769531	-542.6786499023438	381.9051818847656	158.2786102294922	-535.49853515625	65.92276000976562	295.3689270019531	-581.07080078125	76.00762939453125	341.5961303710938	-471.577880859375	107.2469253540039	391.5257263183594	-584.95947265625	194.4354400634766	517.0177001953125	
